<mxfile host="app.diagrams.net" agent="Mozilla/5.0 (Windows NT 10.0; Win64; x64) AppleWebKit/537.36 (KHTML, like Gecko) Chrome/131.0.0.0 Safari/537.36" version="24.7.12">
  <diagram name="第 1 页" id="Te-m8JHDDNqqYAZAqVUz">
    <mxGraphModel dx="565" dy="579" grid="1" gridSize="10" guides="1" tooltips="1" connect="1" arrows="1" fold="1" page="1" pageScale="1" pageWidth="827" pageHeight="1169" math="0" shadow="0">
      <root>
        <mxCell id="0" />
        <mxCell id="1" parent="0" />
        <mxCell id="mO7--AvBq7ZALMpV3Glq-1" value="用户" style="shape=umlActor;verticalLabelPosition=bottom;verticalAlign=top;html=1;outlineConnect=0;" vertex="1" parent="1">
          <mxGeometry x="130" y="330" width="30" height="60" as="geometry" />
        </mxCell>
        <mxCell id="mO7--AvBq7ZALMpV3Glq-5" value="" style="rounded=0;whiteSpace=wrap;html=1;" vertex="1" parent="1">
          <mxGeometry x="220" y="220" width="270" height="270" as="geometry" />
        </mxCell>
        <mxCell id="mO7--AvBq7ZALMpV3Glq-6" value="注册" style="ellipse;whiteSpace=wrap;html=1;" vertex="1" parent="1">
          <mxGeometry x="250" y="260" width="70" height="30" as="geometry" />
        </mxCell>
        <mxCell id="mO7--AvBq7ZALMpV3Glq-7" value="登录" style="ellipse;whiteSpace=wrap;html=1;" vertex="1" parent="1">
          <mxGeometry x="250" y="345" width="70" height="30" as="geometry" />
        </mxCell>
        <mxCell id="mO7--AvBq7ZALMpV3Glq-9" value="找回密码" style="ellipse;whiteSpace=wrap;html=1;" vertex="1" parent="1">
          <mxGeometry x="250" y="420" width="70" height="30" as="geometry" />
        </mxCell>
        <mxCell id="mO7--AvBq7ZALMpV3Glq-10" value="账号注册" style="ellipse;whiteSpace=wrap;html=1;" vertex="1" parent="1">
          <mxGeometry x="378" y="230" width="82" height="30" as="geometry" />
        </mxCell>
        <mxCell id="mO7--AvBq7ZALMpV3Glq-14" value="邮箱绑定" style="ellipse;whiteSpace=wrap;html=1;" vertex="1" parent="1">
          <mxGeometry x="378" y="270" width="82" height="30" as="geometry" />
        </mxCell>
        <mxCell id="mO7--AvBq7ZALMpV3Glq-15" value="企业邮箱登录" style="ellipse;whiteSpace=wrap;html=1;" vertex="1" parent="1">
          <mxGeometry x="378" y="315" width="82" height="30" as="geometry" />
        </mxCell>
        <mxCell id="mO7--AvBq7ZALMpV3Glq-16" value="账号登录" style="ellipse;whiteSpace=wrap;html=1;" vertex="1" parent="1">
          <mxGeometry x="378" y="360" width="82" height="30" as="geometry" />
        </mxCell>
        <mxCell id="mO7--AvBq7ZALMpV3Glq-17" value="登录密码修改" style="ellipse;whiteSpace=wrap;html=1;" vertex="1" parent="1">
          <mxGeometry x="384" y="400" width="76" height="30" as="geometry" />
        </mxCell>
        <mxCell id="mO7--AvBq7ZALMpV3Glq-18" value="绑定邮箱修改" style="ellipse;whiteSpace=wrap;html=1;" vertex="1" parent="1">
          <mxGeometry x="384" y="440" width="76" height="30" as="geometry" />
        </mxCell>
        <mxCell id="mO7--AvBq7ZALMpV3Glq-19" value="" style="endArrow=classic;html=1;rounded=0;entryX=0;entryY=0.5;entryDx=0;entryDy=0;" edge="1" parent="1" source="mO7--AvBq7ZALMpV3Glq-1" target="mO7--AvBq7ZALMpV3Glq-7">
          <mxGeometry width="50" height="50" relative="1" as="geometry">
            <mxPoint x="320" y="430" as="sourcePoint" />
            <mxPoint x="370" y="380" as="targetPoint" />
          </mxGeometry>
        </mxCell>
        <mxCell id="mO7--AvBq7ZALMpV3Glq-21" value="" style="endArrow=classic;html=1;rounded=0;entryX=0;entryY=0.5;entryDx=0;entryDy=0;" edge="1" parent="1" target="mO7--AvBq7ZALMpV3Glq-6">
          <mxGeometry width="50" height="50" relative="1" as="geometry">
            <mxPoint x="160" y="360" as="sourcePoint" />
            <mxPoint x="260" y="370" as="targetPoint" />
          </mxGeometry>
        </mxCell>
        <mxCell id="mO7--AvBq7ZALMpV3Glq-22" value="" style="endArrow=classic;html=1;rounded=0;entryX=0;entryY=0.5;entryDx=0;entryDy=0;" edge="1" parent="1" target="mO7--AvBq7ZALMpV3Glq-9">
          <mxGeometry width="50" height="50" relative="1" as="geometry">
            <mxPoint x="160" y="360" as="sourcePoint" />
            <mxPoint x="270" y="380" as="targetPoint" />
          </mxGeometry>
        </mxCell>
        <mxCell id="mO7--AvBq7ZALMpV3Glq-24" value="" style="endArrow=classic;html=1;rounded=0;entryX=0;entryY=0.5;entryDx=0;entryDy=0;" edge="1" parent="1" target="mO7--AvBq7ZALMpV3Glq-17">
          <mxGeometry width="50" height="50" relative="1" as="geometry">
            <mxPoint x="320" y="430" as="sourcePoint" />
            <mxPoint x="370" y="380" as="targetPoint" />
          </mxGeometry>
        </mxCell>
        <mxCell id="mO7--AvBq7ZALMpV3Glq-25" value="" style="endArrow=classic;html=1;rounded=0;entryX=0;entryY=0.5;entryDx=0;entryDy=0;exitX=1;exitY=0.5;exitDx=0;exitDy=0;" edge="1" parent="1" source="mO7--AvBq7ZALMpV3Glq-9" target="mO7--AvBq7ZALMpV3Glq-18">
          <mxGeometry width="50" height="50" relative="1" as="geometry">
            <mxPoint x="316" y="510" as="sourcePoint" />
            <mxPoint x="384" y="460" as="targetPoint" />
          </mxGeometry>
        </mxCell>
      </root>
    </mxGraphModel>
  </diagram>
</mxfile>
